<?xml version='1.0' encoding='UTF-8'?>
<svg width="37mm" height="37mm" version="1.1" viewBox="0 0 37 37" xmlns="http://www.w3.org/2000/svg"><path d="M2,2H3V3H2zM3,2H4V3H3zM4,2H5V3H4zM5,2H6V3H5zM6,2H7V3H6zM7,2H8V3H7zM8,2H9V3H8zM16,2H17V3H16zM20,2H21V3H20zM21,2H22V3H21zM22,2H23V3H22zM23,2H24V3H23zM25,2H26V3H25zM28,2H29V3H28zM29,2H30V3H29zM30,2H31V3H30zM31,2H32V3H31zM32,2H33V3H32zM33,2H34V3H33zM34,2H35V3H34zM2,3H3V4H2zM8,3H9V4H8zM13,3H14V4H13zM14,3H15V4H14zM17,3H18V4H17zM20,3H21V4H20zM22,3H23V4H22zM23,3H24V4H23zM24,3H25V4H24zM26,3H27V4H26zM28,3H29V4H28zM34,3H35V4H34zM2,4H3V5H2zM4,4H5V5H4zM5,4H6V5H5zM6,4H7V5H6zM8,4H9V5H8zM10,4H11V5H10zM11,4H12V5H11zM16,4H17V5H16zM17,4H18V5H17zM18,4H19V5H18zM21,4H22V5H21zM22,4H23V5H22zM23,4H24V5H23zM24,4H25V5H24zM25,4H26V5H25zM28,4H29V5H28zM30,4H31V5H30zM31,4H32V5H31zM32,4H33V5H32zM34,4H35V5H34zM2,5H3V6H2zM4,5H5V6H4zM5,5H6V6H5zM6,5H7V6H6zM8,5H9V6H8zM10,5H11V6H10zM12,5H13V6H12zM13,5H14V6H13zM14,5H15V6H14zM17,5H18V6H17zM20,5H21V6H20zM21,5H22V6H21zM24,5H25V6H24zM25,5H26V6H25zM26,5H27V6H26zM28,5H29V6H28zM30,5H31V6H30zM31,5H32V6H31zM32,5H33V6H32zM34,5H35V6H34zM2,6H3V7H2zM4,6H5V7H4zM5,6H6V7H5zM6,6H7V7H6zM8,6H9V7H8zM10,6H11V7H10zM11,6H12V7H11zM12,6H13V7H12zM16,6H17V7H16zM17,6H18V7H17zM18,6H19V7H18zM19,6H20V7H19zM22,6H23V7H22zM23,6H24V7H23zM25,6H26V7H25zM28,6H29V7H28zM30,6H31V7H30zM31,6H32V7H31zM32,6H33V7H32zM34,6H35V7H34zM2,7H3V8H2zM8,7H9V8H8zM10,7H11V8H10zM11,7H12V8H11zM12,7H13V8H12zM13,7H14V8H13zM14,7H15V8H14zM15,7H16V8H15zM16,7H17V8H16zM21,7H22V8H21zM23,7H24V8H23zM28,7H29V8H28zM34,7H35V8H34zM2,8H3V9H2zM3,8H4V9H3zM4,8H5V9H4zM5,8H6V9H5zM6,8H7V9H6zM7,8H8V9H7zM8,8H9V9H8zM10,8H11V9H10zM12,8H13V9H12zM14,8H15V9H14zM16,8H17V9H16zM18,8H19V9H18zM20,8H21V9H20zM22,8H23V9H22zM24,8H25V9H24zM26,8H27V9H26zM28,8H29V9H28zM29,8H30V9H29zM30,8H31V9H30zM31,8H32V9H31zM32,8H33V9H32zM33,8H34V9H33zM34,8H35V9H34zM10,9H11V10H10zM14,9H15V10H14zM18,9H19V10H18zM21,9H22V10H21zM22,9H23V10H22zM23,9H24V10H23zM24,9H25V10H24zM25,9H26V10H25zM2,10H3V11H2zM4,10H5V11H4zM5,10H6V11H5zM6,10H7V11H6zM7,10H8V11H7zM8,10H9V11H8zM12,10H13V11H12zM14,10H15V11H14zM15,10H16V11H15zM19,10H20V11H19zM20,10H21V11H20zM21,10H22V11H21zM24,10H25V11H24zM26,10H27V11H26zM28,10H29V11H28zM29,10H30V11H29zM30,10H31V11H30zM31,10H32V11H31zM32,10H33V11H32zM3,11H4V12H3zM5,11H6V12H5zM6,11H7V12H6zM7,11H8V12H7zM9,11H10V12H9zM10,11H11V12H10zM14,11H15V12H14zM15,11H16V12H15zM16,11H17V12H16zM18,11H19V12H18zM19,11H20V12H19zM20,11H21V12H20zM21,11H22V12H21zM22,11H23V12H22zM23,11H24V12H23zM24,11H25V12H24zM25,11H26V12H25zM26,11H27V12H26zM28,11H29V12H28zM29,11H30V12H29zM31,11H32V12H31zM32,11H33V12H32zM33,11H34V12H33zM34,11H35V12H34zM2,12H3V13H2zM4,12H5V13H4zM7,12H8V13H7zM8,12H9V13H8zM14,12H15V13H14zM15,12H16V13H15zM16,12H17V13H16zM17,12H18V13H17zM18,12H19V13H18zM19,12H20V13H19zM22,12H23V13H22zM27,12H28V13H27zM30,12H31V13H30zM32,12H33V13H32zM3,13H4V14H3zM4,13H5V14H4zM5,13H6V14H5zM10,13H11V14H10zM12,13H13V14H12zM13,13H14V14H13zM14,13H15V14H14zM15,13H16V14H15zM17,13H18V14H17zM19,13H20V14H19zM20,13H21V14H20zM21,13H22V14H21zM23,13H24V14H23zM25,13H26V14H25zM26,13H27V14H26zM30,13H31V14H30zM31,13H32V14H31zM32,13H33V14H32zM4,14H5V15H4zM5,14H6V15H5zM6,14H7V15H6zM8,14H9V15H8zM9,14H10V15H9zM10,14H11V15H10zM12,14H13V15H12zM13,14H14V15H13zM16,14H17V15H16zM18,14H19V15H18zM22,14H23V15H22zM30,14H31V15H30zM31,14H32V15H31zM34,14H35V15H34zM2,15H3V16H2zM4,15H5V16H4zM7,15H8V16H7zM9,15H10V16H9zM11,15H12V16H11zM12,15H13V16H12zM13,15H14V16H13zM17,15H18V16H17zM19,15H20V16H19zM20,15H21V16H20zM23,15H24V16H23zM25,15H26V16H25zM27,15H28V16H27zM28,15H29V16H28zM29,15H30V16H29zM32,15H33V16H32zM33,15H34V16H33zM34,15H35V16H34zM2,16H3V17H2zM4,16H5V17H4zM5,16H6V17H5zM8,16H9V17H8zM10,16H11V17H10zM11,16H12V17H11zM13,16H14V17H13zM14,16H15V17H14zM16,16H17V17H16zM17,16H18V17H17zM18,16H19V17H18zM19,16H20V17H19zM22,16H23V17H22zM23,16H24V17H23zM27,16H28V17H27zM28,16H29V17H28zM30,16H31V17H30zM33,16H34V17H33zM4,17H5V18H4zM5,17H6V18H5zM9,17H10V18H9zM15,17H16V18H15zM16,17H17V18H16zM17,17H18V18H17zM23,17H24V18H23zM27,17H28V18H27zM28,17H29V18H28zM29,17H30V18H29zM32,17H33V18H32zM2,18H3V19H2zM5,18H6V19H5zM6,18H7V19H6zM8,18H9V19H8zM10,18H11V19H10zM11,18H12V19H11zM12,18H13V19H12zM13,18H14V19H13zM15,18H16V19H15zM17,18H18V19H17zM19,18H20V19H19zM24,18H25V19H24zM25,18H26V19H25zM27,18H28V19H27zM29,18H30V19H29zM30,18H31V19H30zM31,18H32V19H31zM34,18H35V19H34zM2,19H3V20H2zM6,19H7V20H6zM11,19H12V20H11zM13,19H14V20H13zM16,19H17V20H16zM18,19H19V20H18zM20,19H21V20H20zM21,19H22V20H21zM22,19H23V20H22zM24,19H25V20H24zM25,19H26V20H25zM28,19H29V20H28zM29,19H30V20H29zM31,19H32V20H31zM32,19H33V20H32zM33,19H34V20H33zM34,19H35V20H34zM3,20H4V21H3zM4,20H5V21H4zM5,20H6V21H5zM8,20H9V21H8zM9,20H10V21H9zM10,20H11V21H10zM11,20H12V21H11zM14,20H15V21H14zM17,20H18V21H17zM18,20H19V21H18zM20,20H21V21H20zM23,20H24V21H23zM24,20H25V21H24zM26,20H27V21H26zM27,20H28V21H27zM28,20H29V21H28zM29,20H30V21H29zM30,20H31V21H30zM32,20H33V21H32zM2,21H3V22H2zM4,21H5V22H4zM5,21H6V22H5zM6,21H7V22H6zM9,21H10V22H9zM14,21H15V22H14zM16,21H17V22H16zM18,21H19V22H18zM21,21H22V22H21zM22,21H23V22H22zM23,21H24V22H23zM24,21H25V22H24zM26,21H27V22H26zM27,21H28V22H27zM28,21H29V22H28zM29,21H30V22H29zM30,21H31V22H30zM31,21H32V22H31zM32,21H33V22H32zM33,21H34V22H33zM2,22H3V23H2zM4,22H5V23H4zM7,22H8V23H7zM8,22H9V23H8zM9,22H10V23H9zM13,22H14V23H13zM20,22H21V23H20zM21,22H22V23H21zM24,22H25V23H24zM27,22H28V23H27zM30,22H31V23H30zM31,22H32V23H31zM33,22H34V23H33zM2,23H3V24H2zM3,23H4V24H3zM5,23H6V24H5zM17,23H18V24H17zM18,23H19V24H18zM22,23H23V24H22zM23,23H24V24H23zM24,23H25V24H24zM25,23H26V24H25zM26,23H27V24H26zM28,23H29V24H28zM29,23H30V24H29zM32,23H33V24H32zM34,23H35V24H34zM2,24H3V25H2zM7,24H8V25H7zM8,24H9V25H8zM11,24H12V25H11zM15,24H16V25H15zM20,24H21V25H20zM21,24H22V25H21zM23,24H24V25H23zM26,24H27V25H26zM29,24H30V25H29zM32,24H33V25H32zM33,24H34V25H33zM2,25H3V26H2zM5,25H6V26H5zM9,25H10V26H9zM10,25H11V26H10zM13,25H14V26H13zM15,25H16V26H15zM18,25H19V26H18zM21,25H22V26H21zM22,25H23V26H22zM23,25H24V26H23zM27,25H28V26H27zM29,25H30V26H29zM32,25H33V26H32zM33,25H34V26H33zM2,26H3V27H2zM4,26H5V27H4zM8,26H9V27H8zM9,26H10V27H9zM11,26H12V27H11zM13,26H14V27H13zM19,26H20V27H19zM21,26H22V27H21zM24,26H25V27H24zM26,26H27V27H26zM27,26H28V27H27zM28,26H29V27H28zM29,26H30V27H29zM30,26H31V27H30zM31,26H32V27H31zM10,27H11V28H10zM12,27H13V28H12zM15,27H16V28H15zM16,27H17V28H16zM19,27H20V28H19zM21,27H22V28H21zM23,27H24V28H23zM25,27H26V28H25zM26,27H27V28H26zM30,27H31V28H30zM32,27H33V28H32zM33,27H34V28H33zM34,27H35V28H34zM2,28H3V29H2zM3,28H4V29H3zM4,28H5V29H4zM5,28H6V29H5zM6,28H7V29H6zM7,28H8V29H7zM8,28H9V29H8zM11,28H12V29H11zM15,28H16V29H15zM16,28H17V29H16zM17,28H18V29H17zM19,28H20V29H19zM22,28H23V29H22zM23,28H24V29H23zM25,28H26V29H25zM26,28H27V29H26zM28,28H29V29H28zM30,28H31V29H30zM32,28H33V29H32zM2,29H3V30H2zM8,29H9V30H8zM10,29H11V30H10zM13,29H14V30H13zM15,29H16V30H15zM16,29H17V30H16zM17,29H18V30H17zM19,29H20V30H19zM20,29H21V30H20zM22,29H23V30H22zM23,29H24V30H23zM24,29H25V30H24zM25,29H26V30H25zM26,29H27V30H26zM30,29H31V30H30zM31,29H32V30H31zM32,29H33V30H32zM33,29H34V30H33zM34,29H35V30H34zM2,30H3V31H2zM4,30H5V31H4zM5,30H6V31H5zM6,30H7V31H6zM8,30H9V31H8zM10,30H11V31H10zM12,30H13V31H12zM17,30H18V31H17zM18,30H19V31H18zM24,30H25V31H24zM26,30H27V31H26zM27,30H28V31H27zM28,30H29V31H28zM29,30H30V31H29zM30,30H31V31H30zM31,30H32V31H31zM33,30H34V31H33zM2,31H3V32H2zM4,31H5V32H4zM5,31H6V32H5zM6,31H7V32H6zM8,31H9V32H8zM10,31H11V32H10zM11,31H12V32H11zM12,31H13V32H12zM13,31H14V32H13zM14,31H15V32H14zM17,31H18V32H17zM20,31H21V32H20zM24,31H25V32H24zM26,31H27V32H26zM27,31H28V32H27zM30,31H31V32H30zM32,31H33V32H32zM33,31H34V32H33zM34,31H35V32H34zM2,32H3V33H2zM4,32H5V33H4zM5,32H6V33H5zM6,32H7V33H6zM8,32H9V33H8zM10,32H11V33H10zM12,32H13V33H12zM15,32H16V33H15zM17,32H18V33H17zM18,32H19V33H18zM20,32H21V33H20zM23,32H24V33H23zM24,32H25V33H24zM26,32H27V33H26zM27,32H28V33H27zM28,32H29V33H28zM29,32H30V33H29zM32,32H33V33H32zM2,33H3V34H2zM8,33H9V34H8zM13,33H14V34H13zM14,33H15V34H14zM15,33H16V34H15zM16,33H17V34H16zM17,33H18V34H17zM20,33H21V34H20zM21,33H22V34H21zM23,33H24V34H23zM25,33H26V34H25zM30,33H31V34H30zM32,33H33V34H32zM2,34H3V35H2zM3,34H4V35H3zM4,34H5V35H4zM5,34H6V35H5zM6,34H7V35H6zM7,34H8V35H7zM8,34H9V35H8zM10,34H11V35H10zM14,34H15V35H14zM16,34H17V35H16zM17,34H18V35H17zM18,34H19V35H18zM19,34H20V35H19zM24,34H25V35H24zM25,34H26V35H25zM26,34H27V35H26zM27,34H28V35H27zM28,34H29V35H28zM29,34H30V35H29zM31,34H32V35H31zM33,34H34V35H33z" id="qr-path" fill="#000000" fill-opacity="1" fill-rule="nonzero" stroke="none" /></svg>